<svg xmlns="http://www.w3.org/2000/svg" viewBox="0 0 920 670"><defs><linearGradient id="g" x1="0" y1="0" x2="1" y2="1"><stop stop-color="#147cb4"/><stop offset=".45" stop-color="#56e7ff"/><stop offset=".72" stop-color="#1cc5c0"/><stop offset="1" stop-color="#1288d2"/></linearGradient><filter id="glow" x="-50%" y="-50%" width="200%" height="200%"><feGaussianBlur stdDeviation="10" result="b"/><feMerge><feMergeNode in="b"/><feMergeNode in="SourceGraphic"/></feMerge></filter></defs><rect width="920" height="670" fill="none"/><path d="M80 335 C145 90 350 105 455 315 C560 525 765 540 840 335 C765 120 565 125 455 340 C345 545 145 545 80 335" fill="none" stroke="#0b3d65" stroke-width="96" stroke-linecap="round" opacity=".82"/><path d="M80 335 C145 90 350 105 455 315 C560 525 765 540 840 335 C765 120 565 125 455 340 C345 545 145 545 80 335" fill="none" stroke="url(#g)" stroke-width="76" stroke-linecap="round" filter="url(#glow)" opacity=".96"/><path d="M80 335 C145 90 350 105 455 315 C560 525 765 540 840 335 C765 120 565 125 455 340 C345 545 145 545 80 335" fill="none" stroke="#b9f7ff" stroke-width="3" stroke-dasharray="1 13" stroke-linecap="round" opacity=".65"/><g fill="none" stroke="#3dcfff" opacity=".22"><ellipse cx="455" cy="335" rx="405" ry="255"/><ellipse cx="455" cy="335" rx="335" ry="215" stroke-dasharray="5 10"/></g><g font-family="Arial, sans-serif" fill="#fff" text-anchor="middle"><text x="648" y="302" font-size="34" font-weight="800">COREON</text><text x="648" y="343" font-size="31" font-weight="800">Safety AX</text><text x="648" y="373" font-size="12" font-weight="700" fill="#a8d9e9">EXECUTION ENGINE</text></g></svg>